<?xml version="1.0" standalone="no"?>
<svg viewBox="0 0 200 200" xmlns="http://www.w3.org/2000/svg">
  <path fill="#213458" d="M32.8,-59.1C42.2,-51.4,49.4,-42,58.5,-31.9C67.7,-21.7,78.8,-10.9,83.7,2.8C88.6,16.5,87.2,33,78.4,43.9C69.7,54.7,53.7,59.9,39.4,65.6C25.1,71.3,12.5,77.4,0,77.5C-12.6,77.6,-25.3,71.6,-33.7,62.5C-42.1,53.5,-46.3,41.3,-49.2,30.4C-52.1,19.4,-53.7,9.7,-58.4,-2.7C-63.1,-15.2,-70.9,-30.3,-66.5,-38.6C-62.1,-46.8,-45.3,-48.2,-32.2,-53.8C-19.1,-59.5,-9.5,-69.3,1.1,-71.2C11.7,-73.1,23.4,-66.9,32.8,-59.1Z" transform="translate(100 100)" />
</svg>
