<svg id="visual" viewBox="0 0 960 300" width="960" height="300" xmlns="http://www.w3.org/2000/svg" xmlns:xlink="http://www.w3.org/1999/xlink" version="1.1"><rect x="0" y="0" width="960" height="300" fill="#dddddd"></rect><g transform="translate(493.4663886515253 154.20776076649608)"><path d="M59.5 -107.4C76.7 -93.2 89.9 -76.3 91.8 -58C93.7 -39.7 84.4 -19.8 86.8 1.4C89.3 22.7 103.5 45.3 98.9 59C94.4 72.8 70.9 77.5 51.3 88.5C31.7 99.5 15.8 116.8 -2.6 121.2C-21 125.7 -42 117.4 -57.4 104C-72.9 90.6 -82.8 72 -93.6 53.9C-104.4 35.7 -116.2 17.8 -122.4 -3.6C-128.6 -25 -129.3 -50 -116.9 -65.4C-104.4 -80.9 -79 -86.8 -57.3 -98.4C-35.7 -110.1 -17.8 -127.6 1.7 -130.4C21.2 -133.3 42.3 -121.7 59.5 -107.4" fill="#213458"></path></g></svg>