<?xml version="1.0" standalone="no"?>
<svg viewBox="0 0 200 200" xmlns="http://www.w3.org/2000/svg">
  <path fill="#213458" d="M33.4,-62.3C43.8,-51.8,53.3,-44,63.3,-34.1C73.4,-24.1,84.2,-12.1,82.2,-1.1C80.3,9.9,65.8,19.7,56,30.1C46.2,40.6,41.2,51.6,32.6,58.5C24.1,65.4,12,68.3,-0.5,69.2C-13.1,70.2,-26.3,69.2,-40.2,65.4C-54.2,61.6,-68.9,54.9,-72.3,43.6C-75.6,32.2,-67.5,16.1,-61.1,3.7C-54.7,-8.7,-50.1,-17.5,-44.9,-25.6C-39.7,-33.7,-33.9,-41.3,-26.3,-53.4C-18.8,-65.6,-9.4,-82.4,1,-84.2C11.5,-86,22.9,-72.8,33.4,-62.3Z" transform="translate(100 100)" />
</svg>
