<svg id="visual" viewBox="0 0 960 300" width="960" height="300" xmlns="http://www.w3.org/2000/svg" xmlns:xlink="http://www.w3.org/1999/xlink" version="1.1"><rect x="0" y="0" width="960" height="300" fill="#dddddd"></rect><g transform="translate(481.8438555787795 137.9086810030548)"><path d="M50.2 -93.5C61 -80.6 63 -59.1 77 -42C91 -25 117 -12.5 118.1 0.7C119.3 13.8 95.6 27.7 78.2 38.8C60.8 49.9 49.6 58.3 37.6 75.9C25.7 93.5 12.8 120.2 -5.7 130.2C-24.3 140.1 -48.7 133.3 -61.5 116.2C-74.4 99.1 -75.7 71.8 -83.2 50.7C-90.7 29.7 -104.4 14.8 -113.2 -5.1C-122 -25 -125.9 -50 -116 -66.9C-106.1 -83.8 -82.3 -92.5 -60.7 -99.2C-39 -105.9 -19.5 -110.4 0.1 -110.6C19.7 -110.7 39.3 -106.5 50.2 -93.5" fill="#213458"></path></g></svg>