<svg id="visual" viewBox="0 0 960 300" width="960" height="300" xmlns="http://www.w3.org/2000/svg" xmlns:xlink="http://www.w3.org/1999/xlink" version="1.1"><rect x="0" y="0" width="960" height="300" fill="#213458"></rect><path d="M0 220L22.8 218C45.7 216 91.3 212 137 205.8C182.7 199.7 228.3 191.3 274 193.5C319.7 195.7 365.3 208.3 411.2 209.2C457 210 503 199 548.8 198.2C594.7 197.3 640.3 206.7 686 207.5C731.7 208.3 777.3 200.7 823 194.2C868.7 187.7 914.3 182.3 937.2 179.7L960 177L960 301L937.2 301C914.3 301 868.7 301 823 301C777.3 301 731.7 301 686 301C640.3 301 594.7 301 548.8 301C503 301 457 301 411.2 301C365.3 301 319.7 301 274 301C228.3 301 182.7 301 137 301C91.3 301 45.7 301 22.8 301L0 301Z" fill="#213458"></path><path d="M0 221L22.8 220.7C45.7 220.3 91.3 219.7 137 221C182.7 222.3 228.3 225.7 274 224.8C319.7 224 365.3 219 411.2 218.8C457 218.7 503 223.3 548.8 226.2C594.7 229 640.3 230 686 225.3C731.7 220.7 777.3 210.3 823 206.2C868.7 202 914.3 204 937.2 205L960 206L960 301L937.2 301C914.3 301 868.7 301 823 301C777.3 301 731.7 301 686 301C640.3 301 594.7 301 548.8 301C503 301 457 301 411.2 301C365.3 301 319.7 301 274 301C228.3 301 182.7 301 137 301C91.3 301 45.7 301 22.8 301L0 301Z" fill="#134769"></path><path d="M0 222L22.8 221.8C45.7 221.7 91.3 221.3 137 225.2C182.7 229 228.3 237 274 237.7C319.7 238.3 365.3 231.7 411.2 233.2C457 234.7 503 244.3 548.8 245.3C594.7 246.3 640.3 238.7 686 233.7C731.7 228.7 777.3 226.3 823 224.8C868.7 223.3 914.3 222.7 937.2 222.3L960 222L960 301L937.2 301C914.3 301 868.7 301 823 301C777.3 301 731.7 301 686 301C640.3 301 594.7 301 548.8 301C503 301 457 301 411.2 301C365.3 301 319.7 301 274 301C228.3 301 182.7 301 137 301C91.3 301 45.7 301 22.8 301L0 301Z" fill="#005975"></path><path d="M0 264L22.8 263.8C45.7 263.7 91.3 263.3 137 259.7C182.7 256 228.3 249 274 247.5C319.7 246 365.3 250 411.2 253.7C457 257.3 503 260.7 548.8 263.3C594.7 266 640.3 268 686 267.7C731.7 267.3 777.3 264.7 823 261.3C868.7 258 914.3 254 937.2 252L960 250L960 301L937.2 301C914.3 301 868.7 301 823 301C777.3 301 731.7 301 686 301C640.3 301 594.7 301 548.8 301C503 301 457 301 411.2 301C365.3 301 319.7 301 274 301C228.3 301 182.7 301 137 301C91.3 301 45.7 301 22.8 301L0 301Z" fill="#006b7d"></path><path d="M0 280L22.8 280.3C45.7 280.7 91.3 281.3 137 278.7C182.7 276 228.3 270 274 270.3C319.7 270.7 365.3 277.3 411.2 278C457 278.7 503 273.3 548.8 271C594.7 268.7 640.3 269.3 686 272C731.7 274.7 777.3 279.3 823 279.3C868.7 279.3 914.3 274.7 937.2 272.3L960 270L960 301L937.2 301C914.3 301 868.7 301 823 301C777.3 301 731.7 301 686 301C640.3 301 594.7 301 548.8 301C503 301 457 301 411.2 301C365.3 301 319.7 301 274 301C228.3 301 182.7 301 137 301C91.3 301 45.7 301 22.8 301L0 301Z" fill="#1d7d81"></path></svg>