<svg id="visual" viewBox="0 0 960 300" width="960" height="300" xmlns="http://www.w3.org/2000/svg" xmlns:xlink="http://www.w3.org/1999/xlink" version="1.1"><rect x="0" y="0" width="960" height="300" fill="#dddddd"></rect><path d="M0 77L22.8 83.2C45.7 89.3 91.3 101.7 137 106.8C182.7 112 228.3 110 274 103.7C319.7 97.3 365.3 86.7 411.2 82.5C457 78.3 503 80.7 548.8 83.5C594.7 86.3 640.3 89.7 686 89.5C731.7 89.3 777.3 85.7 823 89.2C868.7 92.7 914.3 103.3 937.2 108.7L960 114L960 0L937.2 0C914.3 0 868.7 0 823 0C777.3 0 731.7 0 686 0C640.3 0 594.7 0 548.8 0C503 0 457 0 411.2 0C365.3 0 319.7 0 274 0C228.3 0 182.7 0 137 0C91.3 0 45.7 0 22.8 0L0 0Z" fill="#1d7d81"></path><path d="M0 70L22.8 70.8C45.7 71.7 91.3 73.3 137 78.5C182.7 83.7 228.3 92.3 274 95C319.7 97.7 365.3 94.3 411.2 91C457 87.7 503 84.3 548.8 82C594.7 79.7 640.3 78.3 686 77C731.7 75.7 777.3 74.3 823 74.7C868.7 75 914.3 77 937.2 78L960 79L960 0L937.2 0C914.3 0 868.7 0 823 0C777.3 0 731.7 0 686 0C640.3 0 594.7 0 548.8 0C503 0 457 0 411.2 0C365.3 0 319.7 0 274 0C228.3 0 182.7 0 137 0C91.3 0 45.7 0 22.8 0L0 0Z" fill="#006b7d"></path><path d="M0 58L22.8 55.8C45.7 53.7 91.3 49.3 137 47.5C182.7 45.7 228.3 46.3 274 49.7C319.7 53 365.3 59 411.2 61.7C457 64.3 503 63.7 548.8 66.2C594.7 68.7 640.3 74.3 686 72.7C731.7 71 777.3 62 823 59.2C868.7 56.3 914.3 59.7 937.2 61.3L960 63L960 0L937.2 0C914.3 0 868.7 0 823 0C777.3 0 731.7 0 686 0C640.3 0 594.7 0 548.8 0C503 0 457 0 411.2 0C365.3 0 319.7 0 274 0C228.3 0 182.7 0 137 0C91.3 0 45.7 0 22.8 0L0 0Z" fill="#005975"></path><path d="M0 48L22.8 45.8C45.7 43.7 91.3 39.3 137 39.8C182.7 40.3 228.3 45.7 274 47C319.7 48.3 365.3 45.7 411.2 46.3C457 47 503 51 548.8 53.2C594.7 55.3 640.3 55.7 686 52C731.7 48.3 777.3 40.7 823 36.2C868.7 31.7 914.3 30.3 937.2 29.7L960 29L960 0L937.2 0C914.3 0 868.7 0 823 0C777.3 0 731.7 0 686 0C640.3 0 594.7 0 548.8 0C503 0 457 0 411.2 0C365.3 0 319.7 0 274 0C228.3 0 182.7 0 137 0C91.3 0 45.7 0 22.8 0L0 0Z" fill="#134769"></path><path d="M0 16L22.8 18C45.7 20 91.3 24 137 23.5C182.7 23 228.3 18 274 18.3C319.7 18.7 365.3 24.3 411.2 27.2C457 30 503 30 548.8 28.3C594.7 26.7 640.3 23.3 686 20.5C731.7 17.7 777.3 15.3 823 16C868.7 16.7 914.3 20.3 937.2 22.2L960 24L960 0L937.2 0C914.3 0 868.7 0 823 0C777.3 0 731.7 0 686 0C640.3 0 594.7 0 548.8 0C503 0 457 0 411.2 0C365.3 0 319.7 0 274 0C228.3 0 182.7 0 137 0C91.3 0 45.7 0 22.8 0L0 0Z" fill="#213458"></path></svg>