<svg id="visual" viewBox="0 0 960 300" width="960" height="300" xmlns="http://www.w3.org/2000/svg" xmlns:xlink="http://www.w3.org/1999/xlink" version="1.1"><rect x="0" y="0" width="960" height="300" fill="#dddddd"></rect><path d="M0 79L22.8 86C45.7 93 91.3 107 137 111.8C182.7 116.7 228.3 112.3 274 111.7C319.7 111 365.3 114 411.2 112.2C457 110.3 503 103.7 548.8 99.8C594.7 96 640.3 95 686 99C731.7 103 777.3 112 823 113.8C868.7 115.7 914.3 110.3 937.2 107.7L960 105L960 0L937.2 0C914.3 0 868.7 0 823 0C777.3 0 731.7 0 686 0C640.3 0 594.7 0 548.8 0C503 0 457 0 411.2 0C365.3 0 319.7 0 274 0C228.3 0 182.7 0 137 0C91.3 0 45.7 0 22.8 0L0 0Z" fill="#1d7d81"></path><path d="M0 94L22.8 93.2C45.7 92.3 91.3 90.7 137 85.7C182.7 80.7 228.3 72.3 274 70.7C319.7 69 365.3 74 411.2 75.8C457 77.7 503 76.3 548.8 76.5C594.7 76.7 640.3 78.3 686 82.3C731.7 86.3 777.3 92.7 823 95C868.7 97.3 914.3 95.7 937.2 94.8L960 94L960 0L937.2 0C914.3 0 868.7 0 823 0C777.3 0 731.7 0 686 0C640.3 0 594.7 0 548.8 0C503 0 457 0 411.2 0C365.3 0 319.7 0 274 0C228.3 0 182.7 0 137 0C91.3 0 45.7 0 22.8 0L0 0Z" fill="#599497"></path><path d="M0 64L22.8 63.3C45.7 62.7 91.3 61.3 137 58.8C182.7 56.3 228.3 52.7 274 54.3C319.7 56 365.3 63 411.2 62.2C457 61.3 503 52.7 548.8 51.8C594.7 51 640.3 58 686 61.3C731.7 64.7 777.3 64.3 823 65.5C868.7 66.7 914.3 69.3 937.2 70.7L960 72L960 0L937.2 0C914.3 0 868.7 0 823 0C777.3 0 731.7 0 686 0C640.3 0 594.7 0 548.8 0C503 0 457 0 411.2 0C365.3 0 319.7 0 274 0C228.3 0 182.7 0 137 0C91.3 0 45.7 0 22.8 0L0 0Z" fill="#86acae"></path><path d="M0 56L22.8 53C45.7 50 91.3 44 137 42.3C182.7 40.7 228.3 43.3 274 42.5C319.7 41.7 365.3 37.3 411.2 35.3C457 33.3 503 33.7 548.8 33.7C594.7 33.7 640.3 33.3 686 35.3C731.7 37.3 777.3 41.7 823 44.2C868.7 46.7 914.3 47.3 937.2 47.7L960 48L960 0L937.2 0C914.3 0 868.7 0 823 0C777.3 0 731.7 0 686 0C640.3 0 594.7 0 548.8 0C503 0 457 0 411.2 0C365.3 0 319.7 0 274 0C228.3 0 182.7 0 137 0C91.3 0 45.7 0 22.8 0L0 0Z" fill="#b2c4c5"></path><path d="M0 17L22.8 20.2C45.7 23.3 91.3 29.7 137 31.8C182.7 34 228.3 32 274 30.7C319.7 29.3 365.3 28.7 411.2 29.3C457 30 503 32 548.8 31.7C594.7 31.3 640.3 28.7 686 28.2C731.7 27.7 777.3 29.3 823 27.3C868.7 25.3 914.3 19.7 937.2 16.8L960 14L960 0L937.2 0C914.3 0 868.7 0 823 0C777.3 0 731.7 0 686 0C640.3 0 594.7 0 548.8 0C503 0 457 0 411.2 0C365.3 0 319.7 0 274 0C228.3 0 182.7 0 137 0C91.3 0 45.7 0 22.8 0L0 0Z" fill="#dddddd"></path></svg>